<svg xmlns="http://www.w3.org/2000/svg" viewBox="0 0 619.2 471.6"><g stroke="#30456B" stroke-linecap="round" stroke-linejoin="round"><path fill="none" stroke-width="6.952" d="M123.3 289.3c0-102.9 83.4-186.3 186.3-186.3S496 186.4 496 289.3"/><path fill="#F16362" stroke-width="4.039" d="M299.7 279.5h19.9v19.9h-19.9v-19.9z"/><g stroke-width="5.214"><path fill="none" d="M195.9 102.9h227.4"/><path fill="#F16362" d="M299.9 93h19.9v19.9h-19.9V93zM186 92.9h19.9v19.9H186V92.9zM413.4 93h19.9v19.9h-19.9V93z"/></g><g stroke-width="5.214"><path fill="none" d="M496 175.6v113.7"/><path fill="#F16362" d="M486 279.5h19.9v19.9H486v-19.9zM486 165.6h19.9v19.9H486v-19.9z"/></g><g stroke-width="5.214"><path fill="none" d="M123.3 175.6v113.7"/><path fill="#F16362" d="M113.4 279.5h19.9v19.9h-19.9v-19.9zM113.4 165.6h19.9v19.9h-19.9v-19.9z"/></g></g><path fill="#30456B" d="M82.6 369.3c10 0 15.2 7.7 15.2 16.7 0 .9-.1 2.5-.1 2.5H69.8c.1 9.2 6.6 14.4 14.1 14.4 6.6 0 10.9-4.5 10.9-4.5l2.4 3.7s-5.3 5.2-13.5 5.2c-10.7 0-19-7.8-19-19 0-11.8 8.2-19 17.9-19zm10.2 15.3c-.3-7.5-4.9-11.2-10.2-11.2-6 0-11.3 3.9-12.5 11.2h22.7zM107.6 361.6c0-1-.6-1.6-1.6-1.6h-3v-4.3h5.1c3.1 0 4.4 1.3 4.4 4.4v40.5c0 1.1.6 1.6 1.6 1.6h3v4.3H112c-3.1 0-4.4-1.3-4.4-4.4v-40.5zM139.8 369.3c10 0 15.2 7.7 15.2 16.7 0 .9-.1 2.5-.1 2.5H127c.1 9.2 6.6 14.4 14.1 14.4 6.6 0 10.9-4.5 10.9-4.5l2.4 3.7s-5.3 5.2-13.5 5.2c-10.7 0-19-7.8-19-19 0-11.8 8.2-19 17.9-19zm10.2 15.3c-.3-7.5-4.9-11.2-10.2-11.2-6 0-11.3 3.9-12.5 11.2H150zM164.8 376c0-1-.6-1.6-1.6-1.6h-3v-4.3h5.1c3 0 4.4 1.3 4.4 4v1.7c0 1.4-.1 2.6-.1 2.6h.1c1.8-4.9 7.5-9.2 13.1-9.2 6.7 0 10.2 3.1 11.3 9.1h.1c1.9-4.9 7.2-9.1 13.3-9.1 8.8 0 12 5.1 12 14.1v17.2c0 1.1.6 1.6 1.6 1.6h3v4.3H219c-3.1 0-4.4-1.3-4.4-4.4v-17.5c0-5.9-1.2-10.8-7.9-10.8-5.5 0-10 4.9-11.5 10.2-.5 1.6-.6 3.3-.6 5.3v17.2h-4.9v-21.9c0-5.5-.8-10.8-7.6-10.8-5.9 0-10.3 5.1-11.8 10.7-.4 1.5-.6 3.2-.6 4.8v17.2h-4.9V376zM246.5 369.3c10 0 15.2 7.7 15.2 16.7 0 .9-.1 2.5-.1 2.5h-27.8c.1 9.2 6.6 14.4 14.1 14.4 6.6 0 10.9-4.5 10.9-4.5l2.4 3.7s-5.3 5.2-13.5 5.2c-10.7 0-19-7.8-19-19-.1-11.8 8.1-19 17.8-19zm10.2 15.3c-.3-7.5-4.9-11.2-10.2-11.2-6 0-11.3 3.9-12.5 11.2h22.7zM271.5 376c0-1-.6-1.6-1.6-1.6h-3v-4.3h5.1c3 0 4.4 1.3 4.4 4v1.7c0 1.4-.1 2.6-.1 2.6h.1c1.3-3.3 5.9-9.2 14.4-9.2 9 0 12.2 5.1 12.2 14.1v17.2c0 1.1.6 1.6 1.6 1.6h3v4.3h-5.1c-3.1 0-4.4-1.3-4.4-4.4v-17.4c0-5.7-.9-10.7-7.9-10.7-6.2 0-11.5 4.3-13.2 10.2-.4 1.5-.6 3.2-.6 4.9v17.4h-4.9V376zM315.8 374.3H311v-4.1h4.8v-10h4.8v10h9.1v4.1h-9.1v18.5c0 8.5 5.4 9.6 8.2 9.6 1 0 1.7-.1 1.7-.1v4.4s-.9.1-2.1.1c-4.2 0-12.6-1.4-12.6-13.5v-19z"/><path fill="#F16362" d="M339.4 377h-4.8v-7.3h5v-10h8.9v10h8.4v7.3h-8.4v14.9c0 6.1 4.8 6.9 7.3 6.9 1 0 1.7-.1 1.7-.1v8s-1.2.2-2.8.2c-5.1 0-15.3-1.5-15.3-13.9v-16zM381.9 368.8c11.3 0 20.2 8 20.2 19.3s-8.9 19.3-20.2 19.3c-11.2 0-20.1-7.9-20.1-19.3-.1-11.3 8.9-19.3 20.1-19.3zm0 30.8c6 0 11-4.6 11-11.5 0-6.8-5-11.5-11-11.5-5.9 0-10.9 4.7-10.9 11.5s4.9 11.5 10.9 11.5z"/><path fill="#30456B" d="M410.3 379.1c0-1.1-.6-1.6-1.6-1.6h-2.9v-7.8h8.2c3.4 0 4.6 1.5 4.6 3.5v1.4h.1s3.1-5.8 11.7-5.8c10 0 16.4 7.9 16.4 19.3 0 11.7-7.2 19.3-16.9 19.3-7.3 0-10.5-4.8-10.5-4.8h-.1s.1 1.3.1 3.2V421h-9.1v-41.9zm18 20.5c5 0 9.3-4.1 9.3-11.4 0-7-3.8-11.5-9.2-11.5-4.8 0-9.2 3.5-9.2 11.6 0 5.7 3 11.3 9.1 11.3zM473 383.4h1.2v-.3c0-5.3-2.1-7.2-6.8-7.2-1.7 0-4.9.4-4.9 2.5v1.9H454v-3.9c0-6.9 9.7-7.6 13.5-7.6 12.3 0 15.9 6.4 15.9 14.6v13.7c0 1 .6 1.6 1.6 1.6h2.9v7.7h-8.2c-3.4 0-4.7-1.9-4.7-4 0-.9.1-1.6.1-1.6h-.1s-2.8 6.5-11.1 6.5c-6.6 0-12.6-4.1-12.6-11.5-.1-11.5 15.8-12.4 21.7-12.4zm-7 16.8c4.9 0 8.4-5.2 8.4-9.7v-.9h-1.6c-4.8 0-12.3.6-12.3 5.8-.1 2.5 1.7 4.8 5.5 4.8zM495.3 377h-4.8v-7.3h5v-10h8.9v10h8.4v7.3h-8.4v14.9c0 6.1 4.8 6.9 7.3 6.9 1 0 1.7-.1 1.7-.1v8s-1.2.2-2.8.2c-5.1 0-15.3-1.5-15.3-13.9v-16zM521.2 364.6c0-1.1-.6-1.6-1.6-1.6h-2.9v-7.8h8.7c3.4 0 4.9 1.5 4.9 4.8v13c0 1.8-.1 3.1-.1 3.1h.1c1.7-3.5 6.3-7.3 12.6-7.3 8.2 0 12.8 4.3 12.8 14v14.4c0 1 .6 1.6 1.6 1.6h2.9v7.7h-8.7c-3.4 0-4.8-1.4-4.8-4.9v-16.9c0-4.5-1.2-7.5-5.8-7.5-4.8 0-8.6 3.2-10 7.6-.4 1.4-.6 3-.6 4.8v16.9h-9.2l.1-41.9z"/></svg>